<?xml version="1.0" encoding="UTF-8"?>
<svg width="21px" height="21px" viewBox="0 0 21 21" version="1.1" xmlns="http://www.w3.org/2000/svg" xmlns:xlink="http://www.w3.org/1999/xlink">
    <title>注册网站</title>
    <g id="Filscan-2.4.0" stroke="none" stroke-width="1" fill="none" fill-rule="evenodd">
        <g id="注册网站" transform="translate(0.749023, 0.749023)" fill="#0090FF" fill-rule="nonzero">
            <path d="M17.6484848,16.4339394 C19.1151515,14.6933333 20,12.4484848 20,10 C20,4.48727273 15.5127273,0 10,0 C4.48727273,0 0,4.48727273 0,10 C0,15.5127273 4.48727273,20 10,20 C12.9333333,20 15.5757576,18.729697 17.4060606,16.7127273 L17.4715152,16.7490909 L17.6484848,16.4339394 Z M10,6.34424242 C10.6957576,6.34424242 11.3866667,6.30060606 12.070303,6.21575758 C12.3151515,7.36727273 12.4581818,8.56969697 12.4872727,9.80121212 L7.66060606,9.80121212 C7.68969697,8.5769697 7.83030303,7.37939394 8.07272727,6.23272727 C8.70787879,6.30787879 9.35272727,6.34424242 10,6.34424242 Z M8.30060606,5.28242424 C8.71030303,3.76969697 9.30666667,2.36363636 10.0727273,1.12727273 C10.8363636,2.35878788 11.430303,3.75757576 11.84,5.26545455 C11.2315152,5.33575758 10.6181818,5.37212121 10,5.37212121 C9.42787879,5.37212121 8.8630303,5.3430303 8.30060606,5.28242424 Z M13.4593939,9.80121212 C13.430303,8.52363636 13.2848485,7.27030303 13.0327273,6.06787879 C14.5187879,5.79393939 15.9490909,5.31878788 17.2727273,4.65454545 C18.3393939,6.10181818 18.9866667,7.87878788 19.0278788,9.80121212 L13.4593939,9.80121212 Z M6.68848485,9.80121212 L0.974545455,9.80121212 C1.01575758,7.87878788 1.6630303,6.10181818 2.72969697,4.65454545 C4.0969697,5.34060606 5.57333333,5.82545455 7.11030303,6.09454545 C6.85818182,7.28727273 6.71757576,8.53090909 6.68848485,9.80121212 L6.68848485,9.80121212 Z M6.68848485,10.7733333 C6.71515152,11.9078788 6.83393939,13.0278788 7.04,14.1139394 C5.56848485,14.3781818 4.15030303,14.8412121 2.83636364,15.4884848 C1.81575758,14.16 1.15636364,12.5381818 1.00606061,10.7757576 L6.68848485,10.7757576 L6.68848485,10.7733333 Z M7.66060606,10.7733333 L12.4872727,10.7733333 C12.4606061,11.8666667 12.3442424,12.9454545 12.1430303,13.9854545 C11.4375758,13.8957576 10.7224242,13.8472727 10,13.8472727 C9.32848485,13.8472727 8.66181818,13.8884848 8.00242424,13.9660606 C7.80121212,12.9333333 7.68727273,11.8618182 7.66060606,10.7733333 L7.66060606,10.7733333 Z M13.4593939,10.7733333 L18.9939394,10.7733333 C18.8436364,12.5357576 18.1842424,14.1575758 17.1636364,15.4860606 C15.8909091,14.8606061 14.5236364,14.4072727 13.1030303,14.1381818 C13.3115152,13.0472727 13.4327273,11.9175758 13.4593939,10.7733333 L13.4593939,10.7733333 Z M16.6351515,3.88363636 C15.4351515,4.4630303 14.1454545,4.87757576 12.8072727,5.12 C12.4193939,3.65333333 11.8642424,2.27636364 11.1563636,1.04484848 C13.3115152,1.32363636 15.2315152,2.36121212 16.6351515,3.88363636 Z M9.00121212,1.02787879 C8.28363636,2.27393939 7.72121212,3.6630303 7.33090909,5.14666667 C5.94181818,4.90909091 4.60606061,4.48484848 3.36242424,3.88363636 C4.80242424,2.32484848 6.7830303,1.27272727 9.00121212,1.02787879 L9.00121212,1.02787879 Z M3.49090909,16.249697 C4.67151515,15.6945455 5.93454545,15.2969697 7.24363636,15.0642424 C7.57818182,16.4412121 8.05575758,17.7454545 8.66424242,18.9284848 C6.64727273,18.6278788 4.84363636,17.6581818 3.49090909,16.249697 Z M9.8230303,19.0254545 C9.12,17.7963636 8.57939394,16.4048485 8.21090909,14.9236364 C8.80242424,14.8557576 9.39878788,14.8218182 10,14.8218182 C10.649697,14.8218182 11.2969697,14.8606061 11.9321212,14.9406061 C11.5660606,16.4145455 11.0230303,17.7987879 10.3248485,19.0230303 C10.2157576,19.0278788 10.1090909,19.0278788 10,19.0278788 C9.94181818,19.0278788 9.88121212,19.0278788 9.8230303,19.0254545 L9.8230303,19.0254545 Z M11.4933333,18.9042424 C12.0921212,17.7333333 12.5648485,16.4460606 12.8969697,15.0884848 C14.1575758,15.3236364 15.3721212,15.7139394 16.5090909,16.249697 C15.1927273,17.6193939 13.4472727,18.5769697 11.4933333,18.9042424 Z" id="形状"></path>
        </g>
    </g>
</svg>