<?xml version="1.0" encoding="UTF-8"?>
<svg width="20px" height="20px" viewBox="0 0 20 20" version="1.1" xmlns="http://www.w3.org/2000/svg" xmlns:xlink="http://www.w3.org/1999/xlink">
    <title>形状</title>
    <g id="Filscan-2.4.0" stroke="none" stroke-width="1" fill="none" fill-rule="evenodd">
        <path d="M14.2881836,8.01181641 C14.2881836,7.91091797 14.2863672,7.81091797 14.2818164,7.71181641 C14.7136523,7.39 15.0881836,6.98726562 15.3845508,6.52636719 C14.9881836,6.70455078 14.5627344,6.82363281 14.1154492,6.87363281 C14.5718164,6.59273437 14.9218164,6.14363281 15.0872656,5.60455078 C14.66,5.86363281 14.1872656,6.04908203 13.6845312,6.14544922 C13.2818164,5.68726563 12.7072656,5.39544922 12.0718359,5.38455078 C10.8518164,5.36455078 9.86273437,6.39544922 9.86273437,7.68728516 C9.86273437,7.87091797 9.88181641,8.04908203 9.92,8.22091797 C8.08273437,8.10273437 6.45455078,7.14636719 5.36544922,5.70455078 C5.17544922,6.05 5.06636719,6.45363281 5.06636719,6.88636719 C5.06636719,7.70453125 5.45636719,8.43181641 6.04908203,8.86091797 C5.68636719,8.84455078 5.34634766,8.73455078 5.04818359,8.55455078 L5.04818359,8.58455078 C5.04818359,9.72818359 5.81,10.6863672 6.82091797,10.91 C6.63544922,10.9627344 6.44,10.99 6.23908203,10.9891016 C6.0994057,10.9883522 5.96018395,10.9731143 5.82365234,10.9436328 C6.10455078,11.880918 6.92091797,12.5654492 7.88726562,12.5881641 C7.13091797,13.2154492 6.17818359,13.59 5.14363281,13.5872656 C4.96734682,13.587104 4.79124499,13.5758709 4.61636719,13.5536328 C5.59455078,14.2245313 6.75544922,14.6154494 8.00363281,14.6154494 C12.0663672,14.6163672 14.2881836,11.08 14.2881836,8.01181641 L14.2881836,8.01181641 Z M20,10 C20,4.47726562 15.5227344,0 10,0 C4.47726562,0 0,4.47726562 0,10 C0,15.5227344 4.47726562,20 10,20 C15.5227344,20 20,15.5227344 20,10 Z M0.909082031,10 C0.909082031,4.97910156 4.97910156,0.909082031 10,0.909082031 C15.0208984,0.909082031 19.090918,4.97908203 19.090918,10 C19.090918,15.0208984 15.020918,19.090918 10,19.090918 C4.97910156,19.090918 0.909082031,15.0208984 0.909082031,10 Z" id="形状" fill="#0090FF" fill-rule="nonzero"></path>
    </g>
</svg>